<?xml version="1.0" encoding="utf-8"?>
<!-- Generator: Adobe Illustrator 16.0.0, SVG Export Plug-In . SVG Version: 6.00 Build 0)  -->
<!DOCTYPE svg PUBLIC "-//W3C//DTD SVG 1.1//EN" "http://www.w3.org/Graphics/SVG/1.1/DTD/svg11.dtd">
<svg version="1.1" id="Layer_1" xmlns="http://www.w3.org/2000/svg" xmlns:xlink="http://www.w3.org/1999/xlink" x="0px" y="0px"
	 width="72px" height="72px" viewBox="0 0 72 72" enable-background="new 0 0 72 72" xml:space="preserve">
<g>
	<polygon fill="#FFFFFF" points="27.312,15.619 23.157,27.167 31.468,27.167 	"/>
	<path fill="#FFFFFF" d="M0,0v72h72V0H0z M65.834,5.358h0.414l0.492,1.433c0.045,0.133,0.078,0.233,0.099,0.299
		c0.023-0.074,0.061-0.182,0.11-0.324l0.498-1.408h0.369v2.024h-0.265V5.688l-0.604,1.694H66.7L66.1,5.659v1.723h-0.266V5.358z
		 M63.914,5.358h1.646v0.239h-0.687v1.785h-0.275V5.597h-0.685V5.358z M63.293,5.358v7.638H55.69v27.053h-9.256V12.996h-7.603
		l-2.954-7.638H63.293z M22.26,5.358h10.105l13.553,34.69h-9.87l-2.125-6.026H20.701l-2.125,6.026H8.707L22.26,5.358z
		 M70.824,70.824H1.175V44.535h69.649V70.824z"/>
</g>
<g>
	<path fill="#FFFFFF" d="M2.204,57.623l3.459-10.027h3.424l3.465,10.027H9.834l-0.507-1.795H5.444l-0.521,1.795H2.204z
		 M6.033,53.877h2.719l-1.021-3.309c-0.032-0.1-0.076-0.262-0.13-0.486c-0.055-0.223-0.125-0.512-0.212-0.863
		c-0.06,0.248-0.118,0.482-0.175,0.705c-0.057,0.225-0.115,0.439-0.174,0.645L6.033,53.877z"/>
	<path fill="#FFFFFF" d="M13.512,57.623V47.596h2.089c1.557,0,2.658,0.074,3.305,0.219c0.646,0.146,1.213,0.391,1.702,0.734
		c0.634,0.441,1.116,1.01,1.445,1.701s0.493,1.48,0.493,2.367c0,0.885-0.165,1.674-0.493,2.365s-0.811,1.26-1.445,1.703
		c-0.484,0.338-1.037,0.578-1.658,0.721c-0.621,0.145-1.584,0.217-2.89,0.217h-0.459H13.512z M16.217,55.377h0.459
		c1.073,0,1.856-0.221,2.349-0.662c0.493-0.439,0.74-1.141,0.74-2.098c0-0.959-0.247-1.662-0.74-2.109
		c-0.493-0.449-1.276-0.672-2.349-0.672h-0.459V55.377z"/>
	<path fill="#FFFFFF" d="M24.258,57.623V47.596h2.089c1.557,0,2.658,0.074,3.304,0.219c0.646,0.146,1.213,0.391,1.702,0.734
		c0.635,0.441,1.117,1.01,1.445,1.701s0.493,1.48,0.493,2.367c0,0.885-0.165,1.674-0.493,2.365s-0.811,1.26-1.445,1.703
		c-0.484,0.338-1.037,0.578-1.657,0.721c-0.621,0.145-1.584,0.217-2.89,0.217h-0.459H24.258z M26.963,55.377h0.459
		c1.073,0,1.856-0.221,2.349-0.662c0.493-0.439,0.74-1.141,0.74-2.098c0-0.959-0.247-1.662-0.74-2.109
		c-0.493-0.449-1.276-0.672-2.349-0.672h-0.459V55.377z"/>
	<path fill="#FFFFFF" d="M35.072,57.623V47.596h2.76v10.027H35.072z"/>
	<path fill="#FFFFFF" d="M41.482,57.623v-7.658h-2.246v-2.369h7.226v2.369h-2.246v7.658H41.482z"/>
	<path fill="#FFFFFF" d="M47.866,57.623V47.596h2.76v10.027H47.866z"/>
	<path fill="#FFFFFF" d="M55.701,57.623l-4.205-10.027h2.903l2.007,5.609c0.019,0.059,0.056,0.203,0.113,0.428
		c0.057,0.227,0.131,0.531,0.223,0.914c0.073-0.305,0.142-0.582,0.205-0.828c0.064-0.246,0.112-0.418,0.145-0.514l1.992-5.609h2.904
		l-4.205,10.027H55.701z"/>
	<path fill="#FFFFFF" d="M62.804,57.623V47.596h6.143v2.199h-3.479v1.74h3.28v2.15h-3.28v1.691h3.479v2.246H62.804z"/>
	<path fill="#FFFFFF" d="M3.753,67.779V63.16H2.397v-1.432h4.36v1.432H5.402v4.619H3.753z"/>
	<path fill="#FFFFFF" d="M7.563,67.779v-6.051h3.707v1.328h-2.1v1.049h1.98v1.299h-1.98v1.02h2.1v1.355H7.563z"/>
	<path fill="#FFFFFF" d="M16.747,61.965v1.803c-0.226-0.252-0.451-0.436-0.676-0.553s-0.465-0.176-0.721-0.176
		c-0.474,0-0.857,0.162-1.151,0.486s-0.44,0.746-0.44,1.268c0,0.484,0.15,0.887,0.449,1.205c0.299,0.32,0.68,0.48,1.143,0.48
		c0.256,0,0.497-0.059,0.721-0.176s0.45-0.303,0.676-0.557v1.807c-0.262,0.127-0.522,0.223-0.781,0.285
		c-0.259,0.062-0.521,0.096-0.785,0.096c-0.331,0-0.636-0.039-0.916-0.119c-0.279-0.078-0.536-0.197-0.771-0.357
		c-0.452-0.303-0.796-0.684-1.033-1.145c-0.237-0.459-0.355-0.979-0.355-1.553c0-0.463,0.075-0.885,0.225-1.264
		c0.15-0.379,0.377-0.723,0.68-1.031c0.286-0.295,0.609-0.516,0.969-0.66c0.36-0.146,0.76-0.221,1.201-0.221
		c0.265,0,0.526,0.033,0.785,0.096C16.225,61.744,16.485,61.838,16.747,61.965z"/>
	<path fill="#FFFFFF" d="M17.677,67.779v-6.051h1.649v2.354h2.199v-2.354h1.653v6.051h-1.653v-2.463h-2.199v2.463H17.677z"/>
	<path fill="#FFFFFF" d="M24.463,67.779v-6.051h1.591l2.286,3.113c0.044,0.062,0.116,0.191,0.217,0.383s0.211,0.418,0.333,0.684
		c-0.033-0.252-0.058-0.475-0.073-0.67s-0.022-0.369-0.022-0.521v-2.988h1.583v6.051h-1.583l-2.286-3.123
		c-0.047-0.064-0.121-0.191-0.221-0.383s-0.21-0.416-0.329-0.676c0.033,0.254,0.057,0.479,0.072,0.674s0.023,0.369,0.023,0.521
		v2.986H24.463z"/>
	<path fill="#FFFFFF" d="M37.887,64.768c0,0.436-0.08,0.842-0.239,1.223c-0.16,0.381-0.393,0.721-0.699,1.021
		c-0.309,0.297-0.661,0.527-1.058,0.688c-0.397,0.162-0.809,0.242-1.236,0.242c-0.433,0-0.847-0.08-1.242-0.242
		c-0.396-0.16-0.744-0.391-1.044-0.688c-0.312-0.301-0.547-0.643-0.708-1.025s-0.242-0.789-0.242-1.219
		c0-0.434,0.081-0.84,0.242-1.223c0.161-0.381,0.397-0.721,0.708-1.021c0.3-0.299,0.648-0.527,1.044-0.689
		c0.395-0.16,0.809-0.24,1.242-0.24c0.43,0,0.844,0.08,1.242,0.24c0.398,0.162,0.749,0.391,1.052,0.689
		c0.303,0.297,0.535,0.637,0.697,1.02C37.807,63.928,37.887,64.334,37.887,64.768z M34.655,66.545c0.458,0,0.835-0.168,1.135-0.506
		c0.299-0.336,0.448-0.76,0.448-1.271c0-0.508-0.151-0.93-0.455-1.27c-0.303-0.338-0.679-0.508-1.128-0.508
		c-0.458,0-0.835,0.168-1.134,0.506c-0.299,0.338-0.449,0.762-0.449,1.271c0,0.518,0.147,0.943,0.442,1.277
		C33.809,66.377,34.189,66.545,34.655,66.545z"/>
	<path fill="#FFFFFF" d="M38.92,67.779v-6.051h1.649v4.639h2.05v1.412H38.92z"/>
	<path fill="#FFFFFF" d="M49.488,64.768c0,0.436-0.08,0.842-0.24,1.223c-0.159,0.381-0.393,0.721-0.698,1.021
		c-0.309,0.297-0.661,0.527-1.058,0.688c-0.397,0.162-0.809,0.242-1.236,0.242c-0.433,0-0.847-0.08-1.242-0.242
		c-0.395-0.16-0.743-0.391-1.043-0.688c-0.312-0.301-0.548-0.643-0.709-1.025s-0.242-0.789-0.242-1.219
		c0-0.434,0.081-0.84,0.242-1.223c0.161-0.381,0.397-0.721,0.709-1.021c0.3-0.299,0.648-0.527,1.043-0.689
		c0.396-0.16,0.81-0.24,1.242-0.24c0.43,0,0.844,0.08,1.242,0.24c0.398,0.162,0.749,0.391,1.052,0.689
		c0.303,0.297,0.535,0.637,0.696,1.02C49.407,63.928,49.488,64.334,49.488,64.768z M46.256,66.545c0.457,0,0.836-0.168,1.135-0.506
		c0.299-0.336,0.448-0.76,0.448-1.271c0-0.508-0.151-0.93-0.454-1.27c-0.304-0.338-0.68-0.508-1.129-0.508
		c-0.457,0-0.835,0.168-1.135,0.506c-0.299,0.338-0.448,0.762-0.448,1.271c0,0.518,0.147,0.943,0.442,1.277
		C45.41,66.377,45.79,66.545,46.256,66.545z"/>
	<path fill="#FFFFFF" d="M53.397,65.553v-1.27h3.24c0.003,0.041,0.005,0.088,0.007,0.137c0.001,0.049,0.002,0.123,0.002,0.219
		c0,1.041-0.275,1.85-0.824,2.424c-0.55,0.574-1.324,0.861-2.321,0.861c-0.49,0-0.927-0.072-1.308-0.221
		c-0.382-0.146-0.723-0.371-1.023-0.676c-0.286-0.289-0.509-0.631-0.667-1.027c-0.159-0.395-0.238-0.809-0.238-1.24
		c0-0.453,0.077-0.867,0.231-1.246s0.385-0.721,0.69-1.023c0.303-0.295,0.651-0.518,1.044-0.67c0.393-0.15,0.816-0.227,1.271-0.227
		c0.593,0,1.117,0.117,1.573,0.352c0.455,0.232,0.839,0.582,1.15,1.045l-1.43,0.686c-0.171-0.234-0.363-0.408-0.576-0.523
		c-0.214-0.113-0.453-0.17-0.718-0.17c-0.493,0-0.882,0.164-1.165,0.494c-0.284,0.328-0.426,0.777-0.426,1.348
		c0,0.576,0.142,1.029,0.426,1.361c0.283,0.33,0.672,0.496,1.165,0.496c0.419,0,0.769-0.104,1.048-0.309s0.443-0.479,0.489-0.82
		H53.397z"/>
	<path fill="#FFFFFF" d="M57.696,67.779v-6.051h1.665v6.051H57.696z"/>
	<path fill="#FFFFFF" d="M60.692,67.779v-6.051h3.707v1.328h-2.1v1.049h1.98v1.299H62.3v1.02h2.1v1.355H60.692z"/>
	<path fill="#FFFFFF" d="M65.76,65.824c0.245,0.279,0.486,0.488,0.726,0.625c0.237,0.139,0.476,0.207,0.713,0.207
		c0.22,0,0.401-0.061,0.543-0.178c0.142-0.119,0.213-0.27,0.213-0.451c0-0.201-0.062-0.355-0.185-0.465
		c-0.122-0.109-0.399-0.221-0.832-0.336c-0.593-0.16-1.012-0.369-1.257-0.625s-0.367-0.607-0.367-1.053
		c0-0.58,0.193-1.051,0.58-1.416c0.388-0.365,0.89-0.549,1.507-0.549c0.333,0,0.649,0.045,0.948,0.135s0.582,0.227,0.85,0.408
		l-0.517,1.186c-0.188-0.16-0.38-0.281-0.577-0.361c-0.196-0.082-0.392-0.123-0.584-0.123c-0.199,0-0.359,0.049-0.484,0.143
		c-0.123,0.096-0.186,0.219-0.186,0.367c0,0.15,0.055,0.271,0.163,0.363c0.108,0.09,0.319,0.178,0.631,0.26
		c0.019,0.006,0.044,0.012,0.074,0.021c0.672,0.182,1.114,0.381,1.326,0.6c0.144,0.148,0.253,0.326,0.327,0.535
		c0.074,0.207,0.111,0.438,0.111,0.691c0,0.643-0.211,1.158-0.632,1.547c-0.422,0.391-0.984,0.586-1.687,0.586
		c-0.422,0-0.806-0.072-1.151-0.215s-0.679-0.367-0.998-0.674L65.76,65.824z"/>
</g>
</svg>
