<?xml version="1.0" encoding="utf-8"?>
<!-- Generator: Adobe Illustrator 16.0.0, SVG Export Plug-In . SVG Version: 6.00 Build 0)  -->
<!DOCTYPE svg PUBLIC "-//W3C//DTD SVG 1.1//EN" "http://www.w3.org/Graphics/SVG/1.1/DTD/svg11.dtd">
<svg version="1.1" id="Layer_1" xmlns="http://www.w3.org/2000/svg" xmlns:xlink="http://www.w3.org/1999/xlink" x="0px" y="0px"
	 width="72px" height="72px" viewBox="0 0 72 72" enable-background="new 0 0 72 72" xml:space="preserve">
<path fill="#00325A" d="M0,0v72h72V0H0z M1.175,70.824V44.535h69.649v26.289H1.175z"/>
<rect x="1.175" y="44.535" fill="#FFFFFF" width="69.649" height="26.289"/>
<g>
	<g>
		<path fill="#FFFFFF" d="M33.923,34.022H20.701l-2.125,6.026H8.707L22.26,5.358h10.105l13.553,34.69h-9.87L33.923,34.022z
			 M31.468,27.167l-4.155-11.548l-4.156,11.548H31.468z"/>
		<path fill="#FFFFFF" d="M55.689,12.996v27.053h-9.256V12.996h-7.603l-2.954-7.638h27.415v7.638H55.689z"/>
	</g>
	<g>
		<path fill="#FFFFFF" d="M64.6,7.382V5.597h-0.686V5.358h1.646v0.239h-0.688v1.785H64.6z"/>
		<path fill="#FFFFFF" d="M65.834,7.382V5.358h0.414l0.492,1.433c0.045,0.133,0.078,0.233,0.099,0.299
			c0.022-0.074,0.062-0.182,0.11-0.324l0.498-1.408h0.369v2.024h-0.266V5.688l-0.604,1.694H66.7L66.1,5.659v1.723H65.834z"/>
	</g>
</g>
<g>
	<path fill="#00325A" d="M2.204,57.623l3.459-10.027h3.424l3.465,10.027H9.834l-0.507-1.795H5.444l-0.521,1.795H2.204z
		 M6.033,53.877h2.719l-1.021-3.309c-0.032-0.101-0.076-0.262-0.13-0.486c-0.055-0.223-0.125-0.512-0.212-0.863
		c-0.06,0.248-0.118,0.482-0.175,0.705c-0.057,0.225-0.115,0.439-0.174,0.645L6.033,53.877z"/>
	<path fill="#00325A" d="M13.512,57.623V47.596h2.089c1.557,0,2.658,0.074,3.305,0.219c0.646,0.146,1.213,0.392,1.702,0.734
		c0.634,0.441,1.116,1.01,1.445,1.701c0.329,0.691,0.493,1.48,0.493,2.367c0,0.885-0.165,1.674-0.493,2.365
		c-0.328,0.69-0.811,1.26-1.445,1.703c-0.484,0.338-1.037,0.578-1.658,0.721c-0.621,0.145-1.584,0.217-2.89,0.217h-0.459H13.512
		L13.512,57.623z M16.217,55.377h0.459c1.073,0,1.856-0.221,2.349-0.662c0.493-0.439,0.74-1.141,0.74-2.098
		c0-0.959-0.247-1.662-0.74-2.109c-0.493-0.449-1.276-0.672-2.349-0.672h-0.459V55.377z"/>
	<path fill="#00325A" d="M24.258,57.623V47.596h2.089c1.557,0,2.658,0.074,3.304,0.219c0.646,0.146,1.213,0.392,1.702,0.734
		c0.635,0.441,1.117,1.01,1.445,1.701c0.328,0.691,0.493,1.48,0.493,2.367c0,0.885-0.165,1.674-0.493,2.365
		c-0.328,0.69-0.811,1.26-1.445,1.703c-0.484,0.338-1.037,0.578-1.657,0.721c-0.621,0.145-1.584,0.217-2.89,0.217h-0.459H24.258
		L24.258,57.623z M26.963,55.377h0.459c1.073,0,1.856-0.221,2.349-0.662c0.493-0.439,0.74-1.141,0.74-2.098
		c0-0.959-0.247-1.662-0.74-2.109c-0.493-0.449-1.276-0.672-2.349-0.672h-0.459V55.377z"/>
	<path fill="#00325A" d="M35.072,57.623V47.596h2.76v10.027H35.072z"/>
	<path fill="#00325A" d="M41.482,57.623v-7.658h-2.246v-2.369h7.226v2.369h-2.246v7.658H41.482z"/>
	<path fill="#00325A" d="M47.866,57.623V47.596h2.76v10.027H47.866z"/>
	<path fill="#00325A" d="M55.701,57.623l-4.205-10.027h2.902l2.008,5.609c0.019,0.059,0.056,0.203,0.113,0.428
		c0.057,0.227,0.131,0.531,0.223,0.914c0.072-0.305,0.142-0.582,0.205-0.828c0.064-0.246,0.111-0.418,0.145-0.514l1.992-5.609h2.904
		l-4.205,10.027H55.701L55.701,57.623z"/>
	<path fill="#00325A" d="M62.805,57.623V47.596h6.143v2.199h-3.479v1.74h3.28v2.15h-3.28v1.69h3.479v2.246L62.805,57.623
		L62.805,57.623z"/>
	<path fill="#00325A" d="M3.753,67.779V63.16H2.397v-1.432h4.36v1.432H5.402v4.619H3.753z"/>
	<path fill="#00325A" d="M7.563,67.779v-6.051h3.707v1.328h-2.1v1.049h1.98v1.299H9.17v1.02h2.1v1.355H7.563z"/>
	<path fill="#00325A" d="M16.747,61.965v1.803c-0.226-0.252-0.451-0.436-0.676-0.553c-0.225-0.117-0.465-0.176-0.721-0.176
		c-0.474,0-0.857,0.162-1.151,0.486c-0.294,0.324-0.44,0.746-0.44,1.268c0,0.484,0.15,0.887,0.449,1.205
		c0.299,0.32,0.68,0.48,1.143,0.48c0.256,0,0.497-0.06,0.721-0.177c0.224-0.116,0.45-0.303,0.676-0.557v1.807
		c-0.262,0.128-0.522,0.224-0.781,0.285c-0.259,0.062-0.521,0.097-0.785,0.097c-0.331,0-0.636-0.039-0.916-0.119
		c-0.279-0.078-0.536-0.197-0.771-0.357c-0.452-0.303-0.796-0.684-1.033-1.145c-0.237-0.459-0.355-0.979-0.355-1.554
		c0-0.463,0.075-0.885,0.225-1.264s0.377-0.724,0.68-1.031c0.286-0.295,0.609-0.516,0.969-0.659c0.36-0.146,0.76-0.222,1.201-0.222
		c0.265,0,0.526,0.033,0.785,0.097C16.225,61.744,16.485,61.838,16.747,61.965z"/>
	<path fill="#00325A" d="M17.677,67.779v-6.051h1.649v2.354h2.199v-2.354h1.653v6.051h-1.653v-2.463h-2.199v2.463H17.677z"/>
	<path fill="#00325A" d="M24.463,67.779v-6.051h1.591l2.286,3.112c0.044,0.062,0.116,0.191,0.217,0.384
		c0.101,0.191,0.211,0.418,0.333,0.684c-0.033-0.252-0.058-0.475-0.073-0.67s-0.022-0.369-0.022-0.521v-2.988h1.583v6.051h-1.583
		l-2.286-3.122c-0.047-0.064-0.121-0.191-0.221-0.384c-0.1-0.191-0.21-0.416-0.329-0.676c0.033,0.254,0.057,0.479,0.072,0.674
		c0.015,0.195,0.023,0.369,0.023,0.521v2.986H24.463z"/>
	<path fill="#00325A" d="M37.887,64.768c0,0.437-0.08,0.842-0.238,1.224c-0.16,0.381-0.394,0.721-0.699,1.021
		c-0.309,0.297-0.661,0.527-1.058,0.688s-0.809,0.241-1.236,0.241c-0.433,0-0.847-0.08-1.242-0.241
		c-0.396-0.16-0.744-0.392-1.044-0.688c-0.312-0.301-0.547-0.643-0.708-1.025c-0.161-0.381-0.242-0.788-0.242-1.219
		c0-0.434,0.081-0.84,0.242-1.223c0.161-0.381,0.397-0.721,0.708-1.021c0.3-0.299,0.648-0.526,1.044-0.688
		c0.395-0.16,0.809-0.239,1.242-0.239c0.43,0,0.844,0.079,1.242,0.239c0.398,0.162,0.75,0.392,1.052,0.688s0.535,0.638,0.697,1.021
		C37.807,63.928,37.887,64.334,37.887,64.768z M34.655,66.545c0.458,0,0.835-0.168,1.135-0.506c0.299-0.336,0.448-0.76,0.448-1.271
		c0-0.508-0.151-0.93-0.455-1.27c-0.303-0.338-0.679-0.508-1.128-0.508c-0.458,0-0.835,0.168-1.134,0.506s-0.449,0.762-0.449,1.271
		c0,0.518,0.147,0.942,0.442,1.276C33.809,66.377,34.189,66.545,34.655,66.545z"/>
	<path fill="#00325A" d="M38.92,67.779v-6.051h1.648v4.639h2.051v1.412H38.92z"/>
	<path fill="#00325A" d="M49.488,64.768c0,0.437-0.08,0.842-0.24,1.224c-0.159,0.381-0.393,0.721-0.698,1.021
		c-0.309,0.297-0.661,0.527-1.058,0.688s-0.809,0.241-1.236,0.241c-0.433,0-0.847-0.08-1.242-0.241
		c-0.395-0.16-0.742-0.392-1.043-0.688c-0.312-0.301-0.548-0.643-0.709-1.025c-0.16-0.381-0.242-0.788-0.242-1.219
		c0-0.434,0.082-0.84,0.242-1.223c0.161-0.381,0.397-0.721,0.709-1.021c0.301-0.299,0.648-0.526,1.043-0.688
		c0.396-0.16,0.811-0.239,1.242-0.239c0.43,0,0.844,0.079,1.242,0.239c0.398,0.162,0.749,0.392,1.052,0.688
		c0.304,0.297,0.535,0.638,0.696,1.021C49.407,63.928,49.488,64.334,49.488,64.768z M46.256,66.545c0.457,0,0.836-0.168,1.135-0.506
		c0.299-0.336,0.448-0.76,0.448-1.271c0-0.508-0.151-0.93-0.454-1.27c-0.304-0.338-0.68-0.508-1.129-0.508
		c-0.457,0-0.835,0.168-1.135,0.506c-0.299,0.338-0.448,0.762-0.448,1.271c0,0.518,0.147,0.942,0.442,1.276
		C45.41,66.377,45.79,66.545,46.256,66.545z"/>
	<path fill="#00325A" d="M53.396,65.553v-1.27h3.24c0.004,0.041,0.006,0.088,0.008,0.137c0,0.049,0.002,0.123,0.002,0.219
		c0,1.041-0.275,1.851-0.824,2.424c-0.551,0.574-1.324,0.861-2.321,0.861c-0.489,0-0.927-0.072-1.308-0.221
		c-0.383-0.146-0.723-0.371-1.023-0.676c-0.286-0.289-0.509-0.631-0.667-1.027c-0.159-0.395-0.237-0.809-0.237-1.24
		c0-0.453,0.076-0.867,0.23-1.246s0.385-0.721,0.689-1.022c0.303-0.296,0.651-0.519,1.045-0.671
		c0.393-0.149,0.815-0.227,1.271-0.227c0.593,0,1.117,0.117,1.573,0.352c0.455,0.232,0.839,0.582,1.15,1.046l-1.431,0.686
		c-0.171-0.233-0.362-0.407-0.576-0.522c-0.214-0.113-0.452-0.17-0.718-0.17c-0.493,0-0.882,0.164-1.165,0.494
		c-0.284,0.328-0.426,0.776-0.426,1.348c0,0.576,0.142,1.029,0.426,1.361c0.283,0.33,0.672,0.496,1.165,0.496
		c0.419,0,0.77-0.104,1.048-0.31c0.279-0.205,0.443-0.479,0.489-0.819h-1.641V65.553z"/>
	<path fill="#00325A" d="M57.695,67.779v-6.051h1.666v6.051H57.695z"/>
	<path fill="#00325A" d="M60.691,67.779v-6.051h3.707v1.328h-2.1v1.049h1.98v1.299H62.3v1.02H64.4v1.355H60.691z"/>
	<path fill="#00325A" d="M65.76,65.824c0.245,0.279,0.486,0.488,0.727,0.625c0.236,0.139,0.476,0.207,0.713,0.207
		c0.22,0,0.4-0.061,0.543-0.178c0.142-0.119,0.213-0.271,0.213-0.451c0-0.201-0.062-0.355-0.186-0.465
		c-0.121-0.109-0.398-0.222-0.832-0.336c-0.592-0.16-1.012-0.369-1.256-0.625c-0.246-0.256-0.367-0.607-0.367-1.054
		c0-0.58,0.192-1.051,0.58-1.416c0.388-0.364,0.89-0.549,1.506-0.549c0.334,0,0.649,0.045,0.949,0.135
		c0.299,0.091,0.582,0.228,0.85,0.408l-0.518,1.187c-0.188-0.16-0.38-0.281-0.576-0.361c-0.196-0.082-0.393-0.123-0.584-0.123
		c-0.199,0-0.359,0.049-0.484,0.143c-0.123,0.096-0.186,0.219-0.186,0.367c0,0.15,0.055,0.271,0.162,0.363
		c0.108,0.09,0.319,0.178,0.631,0.26c0.02,0.006,0.045,0.012,0.074,0.021c0.672,0.182,1.114,0.381,1.326,0.6
		c0.145,0.148,0.253,0.326,0.327,0.535c0.073,0.207,0.11,0.438,0.11,0.691c0,0.643-0.211,1.157-0.631,1.547
		c-0.422,0.391-0.984,0.586-1.688,0.586c-0.422,0-0.807-0.072-1.15-0.215c-0.346-0.144-0.68-0.367-0.998-0.675L65.76,65.824z"/>
</g>
</svg>
